<svg width="800" height="800" viewBox="0 0 800 800" fill="none" xmlns="http://www.w3.org/2000/svg">
<g clip-path="url(#clip0_1_2)">
<path fill-rule="evenodd" clip-rule="evenodd" d="M459.629 14.0764C422.091 -4.69213 377.909 -4.69213 340.371 14.0764L73.7047 147.41C28.5337 169.995 0 216.164 0 266.667V533.333C0 583.836 28.5337 630.005 73.7047 652.59L340.371 785.927C377.909 804.693 422.091 804.693 459.629 785.927L726.293 652.59C771.467 630.005 800 583.836 800 533.333V266.667C800 216.164 771.467 169.995 726.293 147.41L459.629 14.0764ZM266.667 266.667C266.667 193.029 326.362 133.333 400 133.333C473.638 133.333 533.333 193.029 533.333 266.667V533.333C533.333 606.971 473.638 666.667 400 666.667C326.362 666.667 266.667 606.971 266.667 533.333V266.667Z" fill="#222222"/>
<path d="M466.667 266.667C466.667 303.485 436.819 333.333 400 333.333C363.181 333.333 333.333 303.485 333.333 266.667C333.333 229.847 363.181 200 400 200C436.819 200 466.667 229.847 466.667 266.667Z" fill="#222222"/>
</g>
<defs>
<clipPath id="clip0_1_2">
<rect width="800" height="800" fill="white"/>
</clipPath>
</defs>
</svg>
